<mxfile host="app.diagrams.net" modified="2024-05-21T17:35:31.303Z" agent="Mozilla/5.0 (Windows NT 10.0; Win64; x64) AppleWebKit/537.36 (KHTML, like Gecko) Chrome/122.0.0.0 Safari/537.36" etag="DZHPnlrhofZPYce9n0dv" version="24.4.4" type="device" pages="4">
  <diagram name="Homepage" id="xCwKjBcnUPyVJ6P_KQug">
    <mxGraphModel dx="1434" dy="746" grid="1" gridSize="10" guides="1" tooltips="1" connect="1" arrows="1" fold="1" page="1" pageScale="1" pageWidth="850" pageHeight="1100" math="0" shadow="0">
      <root>
        <mxCell id="0" />
        <mxCell id="1" parent="0" />
        <mxCell id="lO1NSfMCFW8HK00c0rz9-7" style="edgeStyle=orthogonalEdgeStyle;rounded=0;orthogonalLoop=1;jettySize=auto;html=1;exitX=0;exitY=0.5;exitDx=0;exitDy=0;entryX=0;entryY=0.5;entryDx=0;entryDy=0;" edge="1" parent="1" source="lO1NSfMCFW8HK00c0rz9-3" target="lO1NSfMCFW8HK00c0rz9-5">
          <mxGeometry relative="1" as="geometry" />
        </mxCell>
        <mxCell id="lO1NSfMCFW8HK00c0rz9-3" value="" style="rounded=1;whiteSpace=wrap;html=1;" vertex="1" parent="1">
          <mxGeometry x="20" y="5" width="820" height="60" as="geometry" />
        </mxCell>
        <UserObject label="Search Bar" link="data:page/id,aeuQU08VV6PZvCp2ejwh" linkTarget="_blank" id="lO1NSfMCFW8HK00c0rz9-4">
          <mxCell style="rounded=1;whiteSpace=wrap;html=1;" vertex="1" parent="1">
            <mxGeometry x="425" y="80" width="415" height="40" as="geometry" />
          </mxCell>
        </UserObject>
        <mxCell id="lO1NSfMCFW8HK00c0rz9-5" value="Logo" style="ellipse;whiteSpace=wrap;html=1;" vertex="1" parent="1">
          <mxGeometry x="40" y="10" width="80" height="50" as="geometry" />
        </mxCell>
        <mxCell id="lO1NSfMCFW8HK00c0rz9-8" value="" style="rounded=0;whiteSpace=wrap;html=1;" vertex="1" parent="1">
          <mxGeometry x="10" y="130" width="830" height="50" as="geometry" />
        </mxCell>
        <mxCell id="lO1NSfMCFW8HK00c0rz9-10" value="About" style="rounded=1;whiteSpace=wrap;html=1;" vertex="1" parent="1">
          <mxGeometry x="20" y="140" width="140" height="30" as="geometry" />
        </mxCell>
        <mxCell id="lO1NSfMCFW8HK00c0rz9-11" value="Contact us" style="rounded=1;whiteSpace=wrap;html=1;" vertex="1" parent="1">
          <mxGeometry x="690" y="140" width="120" height="30" as="geometry" />
        </mxCell>
        <mxCell id="lO1NSfMCFW8HK00c0rz9-12" value="Locations" style="rounded=1;whiteSpace=wrap;html=1;" vertex="1" parent="1">
          <mxGeometry x="180" y="140" width="130" height="30" as="geometry" />
        </mxCell>
        <mxCell id="PFk_NLdB08pH0aeFa-jP-1" value="Services" style="rounded=1;whiteSpace=wrap;html=1;" vertex="1" parent="1">
          <mxGeometry x="540" y="145" width="120" height="25" as="geometry" />
        </mxCell>
        <mxCell id="PFk_NLdB08pH0aeFa-jP-2" value="Footer&amp;nbsp;" style="rounded=1;whiteSpace=wrap;html=1;arcSize=30;" vertex="1" parent="1">
          <mxGeometry y="740" width="850" height="60" as="geometry" />
        </mxCell>
        <mxCell id="PFk_NLdB08pH0aeFa-jP-3" value="Blog&lt;div&gt;Policies&lt;/div&gt;" style="rounded=1;whiteSpace=wrap;html=1;" vertex="1" parent="1">
          <mxGeometry x="540" y="750" width="290" height="40" as="geometry" />
        </mxCell>
        <mxCell id="PFk_NLdB08pH0aeFa-jP-4" value="Subscribe" style="rounded=1;whiteSpace=wrap;html=1;" vertex="1" parent="1">
          <mxGeometry x="20" y="750" width="230" height="40" as="geometry" />
        </mxCell>
        <mxCell id="PFk_NLdB08pH0aeFa-jP-32" value="Trending Books/titles&amp;nbsp; (carousel? )&amp;nbsp;" style="rounded=0;whiteSpace=wrap;html=1;" vertex="1" parent="1">
          <mxGeometry x="40" y="200" width="770" height="250" as="geometry" />
        </mxCell>
        <mxCell id="PFk_NLdB08pH0aeFa-jP-33" value="See all" style="rounded=0;whiteSpace=wrap;html=1;" vertex="1" parent="1">
          <mxGeometry x="650" y="470" width="160" height="20" as="geometry" />
        </mxCell>
        <UserObject label="Cart" link="data:page/id,WvFGrn9ZrxpwPiQPHvPS" id="PFk_NLdB08pH0aeFa-jP-34">
          <mxCell style="rounded=0;whiteSpace=wrap;html=1;" vertex="1" parent="1">
            <mxGeometry x="750" y="20" width="70" height="40" as="geometry" />
          </mxCell>
        </UserObject>
        <mxCell id="PFk_NLdB08pH0aeFa-jP-35" value="mag glass" style="ellipse;whiteSpace=wrap;html=1;aspect=fixed;" vertex="1" parent="1">
          <mxGeometry x="800" y="90" width="30" height="30" as="geometry" />
        </mxCell>
        <UserObject label="My account drop down: Sign in, Order status, history" link="data:page/id,aeuQU08VV6PZvCp2ejwh" id="PFk_NLdB08pH0aeFa-jP-36">
          <mxCell style="rounded=1;whiteSpace=wrap;html=1;" vertex="1" parent="1">
            <mxGeometry x="450" y="20" width="280" height="32.5" as="geometry" />
          </mxCell>
        </UserObject>
        <mxCell id="RLfQcRVH2q_QWMVIdhE9-1" value="New releases" style="rounded=0;whiteSpace=wrap;html=1;" vertex="1" parent="1">
          <mxGeometry x="40" y="510" width="200" height="220" as="geometry" />
        </mxCell>
        <mxCell id="RLfQcRVH2q_QWMVIdhE9-3" value="Format: Kindle, Audio, Paperback, hardback - Drop down&amp;nbsp;" style="rounded=0;whiteSpace=wrap;html=1;" vertex="1" parent="1">
          <mxGeometry x="270" y="470" width="352.5" height="20" as="geometry" />
        </mxCell>
        <mxCell id="RLfQcRVH2q_QWMVIdhE9-5" value="Staff picks" style="whiteSpace=wrap;html=1;aspect=fixed;" vertex="1" parent="1">
          <mxGeometry x="310" y="510" width="210" height="210" as="geometry" />
        </mxCell>
        <mxCell id="RLfQcRVH2q_QWMVIdhE9-6" value="Image" style="ellipse;whiteSpace=wrap;html=1;aspect=fixed;" vertex="1" parent="1">
          <mxGeometry x="620" y="515" width="210" height="210" as="geometry" />
        </mxCell>
        <mxCell id="eHpgRflBz9KoWuX9UI4--1" style="edgeStyle=orthogonalEdgeStyle;rounded=0;orthogonalLoop=1;jettySize=auto;html=1;exitX=0.5;exitY=1;exitDx=0;exitDy=0;" edge="1" parent="1" source="lO1NSfMCFW8HK00c0rz9-4" target="lO1NSfMCFW8HK00c0rz9-4">
          <mxGeometry relative="1" as="geometry" />
        </mxCell>
      </root>
    </mxGraphModel>
  </diagram>
  <diagram id="aeuQU08VV6PZvCp2ejwh" name="My Account">
    <mxGraphModel dx="1434" dy="746" grid="1" gridSize="10" guides="1" tooltips="1" connect="1" arrows="1" fold="1" page="1" pageScale="1" pageWidth="850" pageHeight="1100" math="0" shadow="0">
      <root>
        <mxCell id="0" />
        <mxCell id="1" parent="0" />
        <mxCell id="PDRdZ-hIFe-8840Pk6ev-1" value="" style="rounded=1;whiteSpace=wrap;html=1;" vertex="1" parent="1">
          <mxGeometry x="15" y="30" width="820" height="60" as="geometry" />
        </mxCell>
        <UserObject label="Search Bar" link="data:page/id,ZSKCOTErwwivunL0AGaQ" linkTarget="_blank" id="mUD2EvFxWjuHOXnouwmw-1">
          <mxCell style="rounded=1;whiteSpace=wrap;html=1;" vertex="1" parent="1">
            <mxGeometry x="400" y="110" width="415" height="40" as="geometry" />
          </mxCell>
        </UserObject>
        <mxCell id="Z-FFPNPW9nC5NxrMtqqn-1" value="mag glass" style="ellipse;whiteSpace=wrap;html=1;aspect=fixed;" vertex="1" parent="1">
          <mxGeometry x="770" y="115" width="30" height="30" as="geometry" />
        </mxCell>
        <UserObject label="Sign out" link="data:page/id,aeuQU08VV6PZvCp2ejwh" id="hHhruvmv3pn2Ld9s73sU-1">
          <mxCell style="rounded=1;whiteSpace=wrap;html=1;" vertex="1" parent="1">
            <mxGeometry x="560" y="43.75" width="152.5" height="32.5" as="geometry" />
          </mxCell>
        </UserObject>
        <mxCell id="SWvsPqn9PMosv_E1qSR2-1" value="Cart" style="rounded=0;whiteSpace=wrap;html=1;" vertex="1" parent="1">
          <mxGeometry x="740" y="40" width="70" height="40" as="geometry" />
        </mxCell>
        <mxCell id="zvLWqzn-kMLzgdJ3DMAk-1" value="Logo" style="ellipse;whiteSpace=wrap;html=1;" vertex="1" parent="1">
          <mxGeometry x="30" y="35" width="80" height="50" as="geometry" />
        </mxCell>
        <mxCell id="5p8UXYKVjHRqlPQl5reO-1" value="" style="rounded=1;whiteSpace=wrap;html=1;" vertex="1" parent="1">
          <mxGeometry x="30" y="160" width="310" height="430" as="geometry" />
        </mxCell>
        <mxCell id="5p8UXYKVjHRqlPQl5reO-2" value="Email address" style="rounded=0;whiteSpace=wrap;html=1;" vertex="1" parent="1">
          <mxGeometry x="45" y="400" width="280" height="40" as="geometry" />
        </mxCell>
        <mxCell id="5p8UXYKVjHRqlPQl5reO-3" value="Password" style="rounded=0;whiteSpace=wrap;html=1;" vertex="1" parent="1">
          <mxGeometry x="45" y="460" width="280" height="40" as="geometry" />
        </mxCell>
        <mxCell id="5p8UXYKVjHRqlPQl5reO-4" value="" style="rounded=1;whiteSpace=wrap;html=1;" vertex="1" parent="1">
          <mxGeometry x="500" y="160" width="310" height="430" as="geometry" />
        </mxCell>
        <mxCell id="5p8UXYKVjHRqlPQl5reO-6" value="Email address" style="rounded=0;whiteSpace=wrap;html=1;" vertex="1" parent="1">
          <mxGeometry x="45" y="400" width="280" height="40" as="geometry" />
        </mxCell>
        <mxCell id="5p8UXYKVjHRqlPQl5reO-7" value="Email address" style="rounded=0;whiteSpace=wrap;html=1;" vertex="1" parent="1">
          <mxGeometry x="515" y="370" width="280" height="40" as="geometry" />
        </mxCell>
        <mxCell id="5p8UXYKVjHRqlPQl5reO-8" value="Last name" style="rounded=0;whiteSpace=wrap;html=1;" vertex="1" parent="1">
          <mxGeometry x="515" y="310" width="280" height="40" as="geometry" />
        </mxCell>
        <mxCell id="5p8UXYKVjHRqlPQl5reO-9" value="First name" style="rounded=0;whiteSpace=wrap;html=1;" vertex="1" parent="1">
          <mxGeometry x="515" y="250" width="280" height="40" as="geometry" />
        </mxCell>
        <mxCell id="5p8UXYKVjHRqlPQl5reO-10" value="New Customer" style="text;html=1;align=center;verticalAlign=middle;whiteSpace=wrap;rounded=0;" vertex="1" parent="1">
          <mxGeometry x="610" y="180" width="100" height="40" as="geometry" />
        </mxCell>
        <mxCell id="5p8UXYKVjHRqlPQl5reO-11" value="Returning customer&amp;nbsp;" style="text;html=1;align=center;verticalAlign=middle;whiteSpace=wrap;rounded=0;" vertex="1" parent="1">
          <mxGeometry x="110" y="180" width="140" height="40" as="geometry" />
        </mxCell>
        <mxCell id="5p8UXYKVjHRqlPQl5reO-12" value="Re-enter password" style="rounded=0;whiteSpace=wrap;html=1;" vertex="1" parent="1">
          <mxGeometry x="520" y="490" width="280" height="40" as="geometry" />
        </mxCell>
        <mxCell id="5p8UXYKVjHRqlPQl5reO-13" value="Password&lt;span style=&quot;white-space: pre;&quot;&gt;&#x9;&lt;/span&gt;" style="rounded=0;whiteSpace=wrap;html=1;" vertex="1" parent="1">
          <mxGeometry x="515" y="430" width="280" height="40" as="geometry" />
        </mxCell>
        <mxCell id="b0RK3c_hB3m3Pr5C63Tl-1" value="Footer&amp;nbsp;" style="rounded=1;whiteSpace=wrap;html=1;arcSize=30;" vertex="1" parent="1">
          <mxGeometry y="790" width="850" height="60" as="geometry" />
        </mxCell>
        <mxCell id="evlTz1UbjCO4pFxhQ8Yb-1" value="Blog&lt;div&gt;Policies&lt;/div&gt;" style="rounded=1;whiteSpace=wrap;html=1;" vertex="1" parent="1">
          <mxGeometry x="545" y="800" width="290" height="40" as="geometry" />
        </mxCell>
        <mxCell id="rRr71xfKs5VKYTPdwiuj-1" value="Subscribe" style="rounded=1;whiteSpace=wrap;html=1;" vertex="1" parent="1">
          <mxGeometry x="20" y="800" width="230" height="40" as="geometry" />
        </mxCell>
      </root>
    </mxGraphModel>
  </diagram>
  <diagram id="WvFGrn9ZrxpwPiQPHvPS" name="Cart screen ">
    <mxGraphModel dx="1434" dy="746" grid="1" gridSize="10" guides="1" tooltips="1" connect="1" arrows="1" fold="1" page="1" pageScale="1" pageWidth="850" pageHeight="1100" math="0" shadow="0">
      <root>
        <mxCell id="0" />
        <mxCell id="1" parent="0" />
        <mxCell id="KNDz_uR_dZXjl2GSpuZ3-1" value="" style="rounded=1;whiteSpace=wrap;html=1;" vertex="1" parent="1">
          <mxGeometry x="20" y="35" width="820" height="60" as="geometry" />
        </mxCell>
        <mxCell id="uQ1lzvkBWlXQG6EZMzuf-1" value="Logo" style="ellipse;whiteSpace=wrap;html=1;" vertex="1" parent="1">
          <mxGeometry x="30" y="40" width="80" height="50" as="geometry" />
        </mxCell>
        <UserObject label="Sign out" link="data:page/id,2nVsmIllx7kJSde0MI90" id="8Z05r_ncloydiJw3cAlM-1">
          <mxCell style="rounded=1;whiteSpace=wrap;html=1;" vertex="1" parent="1">
            <mxGeometry x="590" y="53.75" width="152.5" height="32.5" as="geometry" />
          </mxCell>
        </UserObject>
        <UserObject label="Cart" link="data:page/id,WvFGrn9ZrxpwPiQPHvPS" id="K34ozHeYv-eqJoAVAi49-1">
          <mxCell style="rounded=0;whiteSpace=wrap;html=1;" vertex="1" parent="1">
            <mxGeometry x="760" y="45" width="70" height="40" as="geometry" />
          </mxCell>
        </UserObject>
        <UserObject label="Search Bar" link="data:page/id,aeuQU08VV6PZvCp2ejwh" linkTarget="_blank" id="50aQ8Hg_IcS-WbF3hJHa-1">
          <mxCell style="rounded=1;whiteSpace=wrap;html=1;" vertex="1" parent="1">
            <mxGeometry x="420" y="120" width="415" height="40" as="geometry" />
          </mxCell>
        </UserObject>
        <mxCell id="aIoGPaJMWJFOOM9MnUEW-1" value="mag glass" style="ellipse;whiteSpace=wrap;html=1;aspect=fixed;" vertex="1" parent="1">
          <mxGeometry x="790" y="125" width="30" height="30" as="geometry" />
        </mxCell>
        <mxCell id="aIoGPaJMWJFOOM9MnUEW-2" value="(Flow) Home &amp;gt; Shopping Cart&amp;nbsp;&amp;nbsp;" style="text;html=1;align=center;verticalAlign=middle;whiteSpace=wrap;rounded=0;" vertex="1" parent="1">
          <mxGeometry x="40" y="120" width="240" height="40" as="geometry" />
        </mxCell>
        <mxCell id="aIoGPaJMWJFOOM9MnUEW-3" value="Image of book" style="whiteSpace=wrap;html=1;aspect=fixed;" vertex="1" parent="1">
          <mxGeometry x="50" y="210" width="310" height="310" as="geometry" />
        </mxCell>
        <mxCell id="12S38pZ9y6Ua4kRqr1dc-2" value="Order Summary" style="swimlane;whiteSpace=wrap;html=1;startSize=23;" vertex="1" parent="1">
          <mxGeometry x="620" y="190" width="200" height="430" as="geometry" />
        </mxCell>
        <mxCell id="12S38pZ9y6Ua4kRqr1dc-3" value="Subtotal - QTY of items" style="text;html=1;align=center;verticalAlign=middle;whiteSpace=wrap;rounded=0;" vertex="1" parent="12S38pZ9y6Ua4kRqr1dc-2">
          <mxGeometry x="12.5" y="50" width="77.5" height="50" as="geometry" />
        </mxCell>
        <mxCell id="12S38pZ9y6Ua4kRqr1dc-4" value="$xxx.xx" style="text;html=1;align=center;verticalAlign=middle;whiteSpace=wrap;rounded=0;" vertex="1" parent="12S38pZ9y6Ua4kRqr1dc-2">
          <mxGeometry x="120" y="60" width="70" height="30" as="geometry" />
        </mxCell>
        <mxCell id="12S38pZ9y6Ua4kRqr1dc-5" value="In store pickup" style="rounded=0;whiteSpace=wrap;html=1;" vertex="1" parent="12S38pZ9y6Ua4kRqr1dc-2">
          <mxGeometry x="12.5" y="120" width="170" height="30" as="geometry" />
        </mxCell>
        <mxCell id="12S38pZ9y6Ua4kRqr1dc-6" value="Shipping" style="rounded=0;whiteSpace=wrap;html=1;" vertex="1" parent="12S38pZ9y6Ua4kRqr1dc-2">
          <mxGeometry x="10" y="170" width="170" height="30" as="geometry" />
        </mxCell>
        <mxCell id="12S38pZ9y6Ua4kRqr1dc-7" value="Proceed to checkout" style="rounded=1;whiteSpace=wrap;html=1;" vertex="1" parent="12S38pZ9y6Ua4kRqr1dc-2">
          <mxGeometry y="230" width="200" height="60" as="geometry" />
        </mxCell>
        <mxCell id="aIoGPaJMWJFOOM9MnUEW-4" value="Title:&lt;div&gt;Description:&lt;/div&gt;&lt;div&gt;SKU/ ISBM/ etc&lt;/div&gt;&lt;div&gt;Quantity&amp;nbsp;&lt;/div&gt;&lt;div&gt;&lt;br&gt;&lt;/div&gt;" style="rounded=0;whiteSpace=wrap;html=1;" vertex="1" parent="1">
          <mxGeometry x="420" y="200" width="90" height="320" as="geometry" />
        </mxCell>
        <mxCell id="C8tZ67biqg_A2BwpS7bR-1" value="Footer&amp;nbsp;" style="rounded=1;whiteSpace=wrap;html=1;arcSize=30;" vertex="1" parent="1">
          <mxGeometry y="680" width="850" height="60" as="geometry" />
        </mxCell>
        <mxCell id="Oqqfii6kmunUM2O6Eu2d-1" value="Blog&lt;div&gt;Policies&lt;/div&gt;" style="rounded=1;whiteSpace=wrap;html=1;" vertex="1" parent="1">
          <mxGeometry x="545" y="690" width="290" height="40" as="geometry" />
        </mxCell>
        <mxCell id="KvwuTV5dEwiw5cEk0Dqr-1" value="Subscribe" style="rounded=1;whiteSpace=wrap;html=1;" vertex="1" parent="1">
          <mxGeometry x="25" y="690" width="230" height="40" as="geometry" />
        </mxCell>
      </root>
    </mxGraphModel>
  </diagram>
  <diagram id="ZSKCOTErwwivunL0AGaQ" name="Search bar ">
    <mxGraphModel dx="1434" dy="746" grid="1" gridSize="10" guides="1" tooltips="1" connect="1" arrows="1" fold="1" page="1" pageScale="1" pageWidth="850" pageHeight="1100" math="0" shadow="0">
      <root>
        <mxCell id="0" />
        <mxCell id="1" parent="0" />
        <mxCell id="riaayVDp_Q6uAgqzVpiy-1" value="" style="rounded=1;whiteSpace=wrap;html=1;" vertex="1" parent="1">
          <mxGeometry x="40" y="240" width="200" height="410" as="geometry" />
        </mxCell>
        <mxCell id="6vpH0EqsNYZ_kKbTKuyC-1" value="" style="rounded=1;whiteSpace=wrap;html=1;" vertex="1" parent="1">
          <mxGeometry x="20" y="35" width="820" height="60" as="geometry" />
        </mxCell>
        <mxCell id="GWFX9Nx64MZDi6y3FTkF-1" value="Logo" style="ellipse;whiteSpace=wrap;html=1;" vertex="1" parent="1">
          <mxGeometry x="30" y="40" width="80" height="50" as="geometry" />
        </mxCell>
        <UserObject label="Sign out" id="dEoSC77UeZpEBxc4B_f8-1">
          <mxCell style="rounded=1;whiteSpace=wrap;html=1;" vertex="1" parent="1">
            <mxGeometry x="550" y="48.75" width="152.5" height="32.5" as="geometry" />
          </mxCell>
        </UserObject>
        <UserObject label="Cart" link="data:page/id,WvFGrn9ZrxpwPiQPHvPS" id="e82hv7aqn8FrLP3jcT-l-1">
          <mxCell style="rounded=0;whiteSpace=wrap;html=1;" vertex="1" parent="1">
            <mxGeometry x="740" y="45" width="70" height="40" as="geometry" />
          </mxCell>
        </UserObject>
        <UserObject label="Search Bar" link="data:page/id,aeuQU08VV6PZvCp2ejwh" linkTarget="_blank" id="c4Eaf9cr6Do7UNz2iqqV-1">
          <mxCell style="rounded=1;whiteSpace=wrap;html=1;" vertex="1" parent="1">
            <mxGeometry x="418.75" y="110" width="415" height="40" as="geometry" />
          </mxCell>
        </UserObject>
        <mxCell id="K-TLDnotNlMH0PGkDuw8-1" value="mag glass" style="ellipse;whiteSpace=wrap;html=1;aspect=fixed;" vertex="1" parent="1">
          <mxGeometry x="790" y="115" width="30" height="30" as="geometry" />
        </mxCell>
        <mxCell id="K-TLDnotNlMH0PGkDuw8-2" value="Showing 9 products per page" style="rounded=0;whiteSpace=wrap;html=1;" vertex="1" parent="1">
          <mxGeometry x="380" y="180" width="180" height="30" as="geometry" />
        </mxCell>
        <mxCell id="K-TLDnotNlMH0PGkDuw8-4" value="Sort by drop down&amp;nbsp;&lt;div&gt;- Relevance&lt;/div&gt;&lt;div&gt;-Sort by name, A to Z&lt;/div&gt;&lt;div&gt;-Sort by name, Z to A&lt;/div&gt;" style="rounded=0;whiteSpace=wrap;html=1;" vertex="1" parent="1">
          <mxGeometry x="600" y="160" width="180" height="70" as="geometry" />
        </mxCell>
        <mxCell id="K-TLDnotNlMH0PGkDuw8-6" value="" style="rounded=0;whiteSpace=wrap;html=1;" vertex="1" parent="1">
          <mxGeometry x="383.75" y="240" width="450" height="50" as="geometry" />
        </mxCell>
        <mxCell id="K-TLDnotNlMH0PGkDuw8-7" value="&lt;font style=&quot;font-size: 18px;&quot;&gt;&amp;gt;&lt;/font&gt;" style="rounded=0;whiteSpace=wrap;html=1;" vertex="1" parent="1">
          <mxGeometry x="785" y="250" width="40" height="30" as="geometry" />
        </mxCell>
        <mxCell id="K-TLDnotNlMH0PGkDuw8-9" value="1" style="rounded=0;whiteSpace=wrap;html=1;" vertex="1" parent="1">
          <mxGeometry x="398.75" y="255" width="20" height="20" as="geometry" />
        </mxCell>
        <mxCell id="K-TLDnotNlMH0PGkDuw8-12" value="5" style="rounded=0;whiteSpace=wrap;html=1;" vertex="1" parent="1">
          <mxGeometry x="550" y="255" width="20" height="20" as="geometry" />
        </mxCell>
        <mxCell id="K-TLDnotNlMH0PGkDuw8-13" value="6" style="rounded=0;whiteSpace=wrap;html=1;" vertex="1" parent="1">
          <mxGeometry x="590" y="255" width="20" height="20" as="geometry" />
        </mxCell>
        <mxCell id="K-TLDnotNlMH0PGkDuw8-14" value="7" style="rounded=0;whiteSpace=wrap;html=1;" vertex="1" parent="1">
          <mxGeometry x="630" y="255" width="20" height="20" as="geometry" />
        </mxCell>
        <mxCell id="K-TLDnotNlMH0PGkDuw8-15" value="10" style="rounded=0;whiteSpace=wrap;html=1;" vertex="1" parent="1">
          <mxGeometry x="750" y="255" width="20" height="20" as="geometry" />
        </mxCell>
        <mxCell id="K-TLDnotNlMH0PGkDuw8-16" value="9" style="rounded=0;whiteSpace=wrap;html=1;" vertex="1" parent="1">
          <mxGeometry x="710" y="255" width="20" height="20" as="geometry" />
        </mxCell>
        <mxCell id="K-TLDnotNlMH0PGkDuw8-17" value="8" style="rounded=0;whiteSpace=wrap;html=1;" vertex="1" parent="1">
          <mxGeometry x="670" y="255" width="20" height="20" as="geometry" />
        </mxCell>
        <mxCell id="K-TLDnotNlMH0PGkDuw8-18" value="3" style="rounded=0;whiteSpace=wrap;html=1;" vertex="1" parent="1">
          <mxGeometry x="470" y="255" width="20" height="20" as="geometry" />
        </mxCell>
        <mxCell id="K-TLDnotNlMH0PGkDuw8-23" value="4" style="rounded=0;whiteSpace=wrap;html=1;" vertex="1" parent="1">
          <mxGeometry x="510" y="255" width="20" height="20" as="geometry" />
        </mxCell>
        <mxCell id="K-TLDnotNlMH0PGkDuw8-25" style="edgeStyle=orthogonalEdgeStyle;rounded=0;orthogonalLoop=1;jettySize=auto;html=1;exitX=0.5;exitY=1;exitDx=0;exitDy=0;" edge="1" parent="1" source="K-TLDnotNlMH0PGkDuw8-18" target="K-TLDnotNlMH0PGkDuw8-18">
          <mxGeometry relative="1" as="geometry" />
        </mxCell>
        <mxCell id="K-TLDnotNlMH0PGkDuw8-29" value="2" style="rounded=0;whiteSpace=wrap;html=1;" vertex="1" parent="1">
          <mxGeometry x="430" y="255" width="20" height="20" as="geometry" />
        </mxCell>
        <mxCell id="K-TLDnotNlMH0PGkDuw8-31" value="" style="childLayout=tableLayout;recursiveResize=0;shadow=0;fillColor=none;" vertex="1" parent="1">
          <mxGeometry x="340" y="310" width="460" height="350" as="geometry" />
        </mxCell>
        <mxCell id="K-TLDnotNlMH0PGkDuw8-32" value="" style="shape=tableRow;horizontal=0;startSize=0;swimlaneHead=0;swimlaneBody=0;top=0;left=0;bottom=0;right=0;dropTarget=0;collapsible=0;recursiveResize=0;expand=0;fontStyle=0;fillColor=none;strokeColor=inherit;" vertex="1" parent="K-TLDnotNlMH0PGkDuw8-31">
          <mxGeometry width="460" height="117" as="geometry" />
        </mxCell>
        <mxCell id="K-TLDnotNlMH0PGkDuw8-33" value="Image of book" style="connectable=0;recursiveResize=0;strokeColor=inherit;fillColor=none;align=center;whiteSpace=wrap;html=1;" vertex="1" parent="K-TLDnotNlMH0PGkDuw8-32">
          <mxGeometry width="153" height="117" as="geometry">
            <mxRectangle width="153" height="117" as="alternateBounds" />
          </mxGeometry>
        </mxCell>
        <mxCell id="K-TLDnotNlMH0PGkDuw8-34" value="Image of book" style="connectable=0;recursiveResize=0;strokeColor=inherit;fillColor=none;align=center;whiteSpace=wrap;html=1;" vertex="1" parent="K-TLDnotNlMH0PGkDuw8-32">
          <mxGeometry x="153" width="154" height="117" as="geometry">
            <mxRectangle width="154" height="117" as="alternateBounds" />
          </mxGeometry>
        </mxCell>
        <mxCell id="K-TLDnotNlMH0PGkDuw8-35" value="Image of book" style="connectable=0;recursiveResize=0;strokeColor=inherit;fillColor=none;align=center;whiteSpace=wrap;html=1;" vertex="1" parent="K-TLDnotNlMH0PGkDuw8-32">
          <mxGeometry x="307" width="153" height="117" as="geometry">
            <mxRectangle width="153" height="117" as="alternateBounds" />
          </mxGeometry>
        </mxCell>
        <mxCell id="K-TLDnotNlMH0PGkDuw8-36" style="shape=tableRow;horizontal=0;startSize=0;swimlaneHead=0;swimlaneBody=0;top=0;left=0;bottom=0;right=0;dropTarget=0;collapsible=0;recursiveResize=0;expand=0;fontStyle=0;fillColor=none;strokeColor=inherit;" vertex="1" parent="K-TLDnotNlMH0PGkDuw8-31">
          <mxGeometry y="117" width="460" height="116" as="geometry" />
        </mxCell>
        <mxCell id="K-TLDnotNlMH0PGkDuw8-37" value="Image of book" style="connectable=0;recursiveResize=0;strokeColor=inherit;fillColor=none;align=center;whiteSpace=wrap;html=1;" vertex="1" parent="K-TLDnotNlMH0PGkDuw8-36">
          <mxGeometry width="153" height="116" as="geometry">
            <mxRectangle width="153" height="116" as="alternateBounds" />
          </mxGeometry>
        </mxCell>
        <mxCell id="K-TLDnotNlMH0PGkDuw8-38" value="Image of book" style="connectable=0;recursiveResize=0;strokeColor=inherit;fillColor=none;align=center;whiteSpace=wrap;html=1;" vertex="1" parent="K-TLDnotNlMH0PGkDuw8-36">
          <mxGeometry x="153" width="154" height="116" as="geometry">
            <mxRectangle width="154" height="116" as="alternateBounds" />
          </mxGeometry>
        </mxCell>
        <mxCell id="K-TLDnotNlMH0PGkDuw8-39" value="Image of book" style="connectable=0;recursiveResize=0;strokeColor=inherit;fillColor=none;align=center;whiteSpace=wrap;html=1;" vertex="1" parent="K-TLDnotNlMH0PGkDuw8-36">
          <mxGeometry x="307" width="153" height="116" as="geometry">
            <mxRectangle width="153" height="116" as="alternateBounds" />
          </mxGeometry>
        </mxCell>
        <mxCell id="K-TLDnotNlMH0PGkDuw8-40" style="shape=tableRow;horizontal=0;startSize=0;swimlaneHead=0;swimlaneBody=0;top=0;left=0;bottom=0;right=0;dropTarget=0;collapsible=0;recursiveResize=0;expand=0;fontStyle=0;fillColor=none;strokeColor=inherit;" vertex="1" parent="K-TLDnotNlMH0PGkDuw8-31">
          <mxGeometry y="233" width="460" height="117" as="geometry" />
        </mxCell>
        <mxCell id="K-TLDnotNlMH0PGkDuw8-41" value="Image of book" style="connectable=0;recursiveResize=0;strokeColor=inherit;fillColor=none;align=center;whiteSpace=wrap;html=1;" vertex="1" parent="K-TLDnotNlMH0PGkDuw8-40">
          <mxGeometry width="153" height="117" as="geometry">
            <mxRectangle width="153" height="117" as="alternateBounds" />
          </mxGeometry>
        </mxCell>
        <mxCell id="K-TLDnotNlMH0PGkDuw8-42" value="Image of book" style="connectable=0;recursiveResize=0;strokeColor=inherit;fillColor=none;align=center;whiteSpace=wrap;html=1;" vertex="1" parent="K-TLDnotNlMH0PGkDuw8-40">
          <mxGeometry x="153" width="154" height="117" as="geometry">
            <mxRectangle width="154" height="117" as="alternateBounds" />
          </mxGeometry>
        </mxCell>
        <mxCell id="K-TLDnotNlMH0PGkDuw8-43" value="Image of book" style="connectable=0;recursiveResize=0;strokeColor=inherit;fillColor=none;align=center;whiteSpace=wrap;html=1;" vertex="1" parent="K-TLDnotNlMH0PGkDuw8-40">
          <mxGeometry x="307" width="153" height="117" as="geometry">
            <mxRectangle width="153" height="117" as="alternateBounds" />
          </mxGeometry>
        </mxCell>
        <mxCell id="K-TLDnotNlMH0PGkDuw8-44" value="Genre: Fiction, Non-fiction, Self-improvement, Cooking, Young adult" style="rounded=0;whiteSpace=wrap;html=1;" vertex="1" parent="1">
          <mxGeometry x="30" y="110" width="350" height="40" as="geometry" />
        </mxCell>
        <mxCell id="K-TLDnotNlMH0PGkDuw8-45" value="&lt;u&gt;&lt;b&gt;GENRE&lt;/b&gt;&lt;/u&gt;" style="text;html=1;align=center;verticalAlign=middle;whiteSpace=wrap;rounded=0;" vertex="1" parent="1">
          <mxGeometry x="100" y="240" width="60" height="30" as="geometry" />
        </mxCell>
        <mxCell id="K-TLDnotNlMH0PGkDuw8-46" value="Fiction" style="text;html=1;align=center;verticalAlign=middle;whiteSpace=wrap;rounded=0;" vertex="1" parent="1">
          <mxGeometry x="60" y="280" width="140" height="30" as="geometry" />
        </mxCell>
        <mxCell id="K-TLDnotNlMH0PGkDuw8-47" value="Non-Fiction" style="text;html=1;align=center;verticalAlign=middle;whiteSpace=wrap;rounded=0;" vertex="1" parent="1">
          <mxGeometry x="60" y="330" width="140" height="30" as="geometry" />
        </mxCell>
        <mxCell id="K-TLDnotNlMH0PGkDuw8-48" value="Sefl-improvement" style="text;html=1;align=center;verticalAlign=middle;whiteSpace=wrap;rounded=0;" vertex="1" parent="1">
          <mxGeometry x="50" y="370" width="140" height="30" as="geometry" />
        </mxCell>
        <mxCell id="K-TLDnotNlMH0PGkDuw8-49" value="Cooking" style="text;html=1;align=center;verticalAlign=middle;whiteSpace=wrap;rounded=0;" vertex="1" parent="1">
          <mxGeometry x="50" y="410" width="140" height="30" as="geometry" />
        </mxCell>
        <mxCell id="K-TLDnotNlMH0PGkDuw8-50" value="Young Adult" style="text;html=1;align=center;verticalAlign=middle;whiteSpace=wrap;rounded=0;" vertex="1" parent="1">
          <mxGeometry x="50" y="450" width="140" height="30" as="geometry" />
        </mxCell>
        <mxCell id="K-TLDnotNlMH0PGkDuw8-51" value="Travel&amp;nbsp;" style="text;html=1;align=center;verticalAlign=middle;whiteSpace=wrap;rounded=0;" vertex="1" parent="1">
          <mxGeometry x="50" y="490" width="140" height="30" as="geometry" />
        </mxCell>
        <mxCell id="K-TLDnotNlMH0PGkDuw8-52" value="Board books 0-3" style="text;html=1;align=center;verticalAlign=middle;whiteSpace=wrap;rounded=0;" vertex="1" parent="1">
          <mxGeometry x="50" y="535" width="140" height="30" as="geometry" />
        </mxCell>
        <mxCell id="K-TLDnotNlMH0PGkDuw8-53" value="More" style="text;html=1;align=center;verticalAlign=middle;whiteSpace=wrap;rounded=0;" vertex="1" parent="1">
          <mxGeometry x="50" y="580" width="140" height="30" as="geometry" />
        </mxCell>
        <mxCell id="_6KybsZ-mW0q-enGexKU-1" value="Footer&amp;nbsp;" style="rounded=1;whiteSpace=wrap;html=1;arcSize=30;" vertex="1" parent="1">
          <mxGeometry x="5" y="720" width="835" height="60" as="geometry" />
        </mxCell>
        <mxCell id="7KBsxwBWeuwqUR35mTP0-1" value="Blog&lt;div&gt;Policies&lt;/div&gt;" style="rounded=1;whiteSpace=wrap;html=1;" vertex="1" parent="1">
          <mxGeometry x="530" y="730" width="290" height="40" as="geometry" />
        </mxCell>
        <mxCell id="gAWh9u9zn3TJjeSIZi7O-1" value="Subscribe" style="rounded=1;whiteSpace=wrap;html=1;" vertex="1" parent="1">
          <mxGeometry x="25" y="730" width="230" height="40" as="geometry" />
        </mxCell>
      </root>
    </mxGraphModel>
  </diagram>
</mxfile>
